<?xml version="1.0" encoding="iso-8859-1"?>
<!-- Uploaded to: SVG Repo, www.svgrepo.com, Generator: SVG Repo Mixer Tools -->
<svg fill="#000000" height="30px" width="30px" version="1.1" id="Layer_1" xmlns="http://www.w3.org/2000/svg" xmlns:xlink="http://www.w3.org/1999/xlink" 
	 viewBox="0 0 512 512" xml:space="preserve">
<g>
	<g>
		<path d="M466.016,101.611h-51.968V80.899c0-25.701-20.909-46.611-46.611-46.611c-11.674,0-22.36,4.314-30.547,11.432
			C336.414,20.429,315.692,0,290.288,0c-19.106,0-35.564,11.555-42.752,28.045c-8.529-9.328-20.792-15.187-34.397-15.187
			c-25.701,0-46.611,20.909-46.611,46.611v11.96c-8.186-7.114-18.867-11.424-30.538-11.424c-24.01,0-43.833,18.251-46.339,41.607
			H45.984c-4.439,0-8.036,3.598-8.036,8.036V323.95c0,4.438,3.597,8.036,8.036,8.036H89.38v171.977c0,4.438,3.597,8.036,8.036,8.036
			h205.73c4.439,0,8.036-3.598,8.036-8.036s-3.597-8.036-8.036-8.036H105.453v-64.826c0-54.652,44.462-99.115,99.115-99.115h120.009
			c4.439,0,8.036-3.598,8.036-8.036v-83.578c0-13.294,10.816-24.109,24.109-24.109h17.144c13.293,0,24.109,10.815,24.109,24.109
			v255.555h-56.254c-4.439,0-8.036,3.598-8.036,8.036s3.597,8.036,8.036,8.036h64.291c4.439,0,8.036-3.598,8.036-8.036V331.986
			h51.968c4.439,0,8.036-3.598,8.036-8.036V109.648C474.052,105.21,470.455,101.611,466.016,101.611z M336.899,80.899
			c0-16.839,13.699-30.538,30.538-30.538s30.538,13.699,30.538,30.538v20.712h-61.076V80.899z M259.75,59.469v-1.254V46.611h0
			c0-16.839,13.699-30.538,30.538-30.538c16.839,0,30.538,13.699,30.538,30.538v33.035v1.254v20.712H259.75V59.469z M135.991,76.077
			c15.134,0,27.725,11.069,30.121,25.534H105.87C108.265,87.146,120.857,76.077,135.991,76.077z M105.453,372.476v-40.49h40.49
			C129.295,341.871,115.337,355.828,105.453,372.476z M316.54,240.372v25.108c-14.843,18.433-36.896,29.004-60.54,29.004
			c-42.836,0-77.684-34.849-77.684-77.685s34.849-77.685,77.684-77.685c39.718,0,72.671,29.472,77.157,68.741
			C323.098,215.165,316.54,227.015,316.54,240.372z M457.98,315.914h-43.932v-9.67c0.178,0.012,0.355,0.027,0.536,0.027H440.3
			c4.439,0,8.036-3.598,8.036-8.036s-3.597-8.036-8.036-8.036h-25.716c-0.181,0-0.358,0.015-0.536,0.027v-49.852
			c0-22.157-18.025-40.182-40.182-40.182h-17.144c-2.848,0-5.625,0.302-8.309,0.869c-3.48-20.561-13.722-39.405-29.298-53.592
			c-17.293-15.751-39.708-24.425-63.115-24.425c-51.698,0-93.757,42.059-93.757,93.757s42.059,93.757,93.757,93.757
			c22.477,0,43.763-7.916,60.54-22.148v27.506H54.02V117.685h141.975c4.439,0,8.036-3.598,8.036-8.036
			c0-4.438-3.597-8.036-8.036-8.036h-13.394V59.469c0-16.839,13.699-30.538,30.538-30.538c16.839,0,30.538,13.699,30.538,30.538
			v42.143h-11.251c-4.439,0-8.036,3.598-8.036,8.036s3.597,8.036,8.036,8.036H457.98V315.914z"/>
	</g>
</g>
<g>
	<g>
		<path d="M440.3,135.9h-68.577c-4.439,0-8.036,3.598-8.036,8.036c0,4.438,3.597,8.036,8.036,8.036H440.3
			c4.439,0,8.036-3.598,8.036-8.036C448.336,139.498,444.739,135.9,440.3,135.9z"/>
	</g>
</g>
<g>
	<g>
		<path d="M440.3,170.188h-51.432c-4.439,0-8.036,3.598-8.036,8.036c0,4.438,3.597,8.036,8.036,8.036H440.3
			c4.439,0,8.036-3.598,8.036-8.036C448.336,173.786,444.739,170.188,440.3,170.188z"/>
	</g>
</g>
<g>
	<g>
		<path d="M140.277,135.9H71.7c-4.439,0-8.036,3.598-8.036,8.036c0,4.438,3.597,8.036,8.036,8.036h68.577
			c4.439,0,8.036-3.598,8.036-8.036C148.313,139.498,144.716,135.9,140.277,135.9z"/>
	</g>
</g>
<g>
	<g>
		<path d="M123.133,170.188H71.7c-4.439,0-8.036,3.598-8.036,8.036c0,4.438,3.597,8.036,8.036,8.036h51.433
			c4.439,0,8.036-3.598,8.036-8.036C131.169,173.786,127.572,170.188,123.133,170.188z"/>
	</g>
</g>
<g>
	<g>
		<path d="M97.416,290.197H71.7c-4.439,0-8.036,3.598-8.036,8.036s3.597,8.036,8.036,8.036h25.716c4.439,0,8.036-3.598,8.036-8.036
			S101.856,290.197,97.416,290.197z"/>
	</g>
</g>
<g>
	<g>
		<path d="M157.421,290.197h-25.716c-4.439,0-8.036,3.598-8.036,8.036s3.597,8.036,8.036,8.036h25.716
			c4.439,0,8.036-3.598,8.036-8.036S161.86,290.197,157.421,290.197z"/>
	</g>
</g>
<g>
	<g>
		<path d="M110.275,213.049c-11.521,0-20.894,9.374-20.894,20.894s9.374,20.894,20.894,20.894s20.894-9.372,20.894-20.894
			C131.169,222.422,121.795,213.049,110.275,213.049z M110.275,238.765c-2.658,0-4.822-2.163-4.822-4.822
			c0-2.658,2.163-4.822,4.822-4.822s4.822,2.163,4.822,4.822C115.096,236.601,112.933,238.765,110.275,238.765z"/>
	</g>
</g>
<g>
	<g>
		<path d="M286.002,186.261c4.439,0,8.036-3.598,8.036-8.036c0-4.438-3.597-8.036-8.036-8.036h-21.966v-9.108
			c0-4.438-3.597-8.036-8.036-8.036c-4.439,0-8.036,3.598-8.036,8.036v9.108h-6.965c-10.339,0-18.751,8.412-18.751,18.751v17.144
			c0,10.339,8.412,18.751,18.751,18.751h6.965v22.502h-21.966c-4.439,0-8.036,3.598-8.036,8.036s3.597,8.036,8.036,8.036h21.966
			v9.108c0,4.438,3.597,8.036,8.036,8.036c4.439,0,8.036-3.598,8.036-8.036v-9.108h6.965c10.339,0,18.751-8.412,18.751-18.751
			v-17.144c0-10.339-8.412-18.751-18.751-18.751h-6.965v-22.502H286.002z M247.964,208.762h-6.965c-1.478,0-2.679-1.202-2.679-2.679
			V188.94c0-1.477,1.201-2.679,2.679-2.679h6.965V208.762z M271.001,224.835c1.478,0,2.679,1.202,2.679,2.679v17.144
			c0,1.477-1.201,2.679-2.679,2.679h-6.965v-22.502H271.001z"/>
	</g>
</g>
</svg>