<?xml version="1.0" encoding="iso-8859-1"?>
<!-- Uploaded to: SVG Repo, www.svgrepo.com, Generator: SVG Repo Mixer Tools -->
<svg fill="#000000" height="800px" width="800px" version="1.1" id="Layer_1" xmlns="http://www.w3.org/2000/svg" xmlns:xlink="http://www.w3.org/1999/xlink" 
	 viewBox="0 0 512.005 512.005" xml:space="preserve">
<g>
	<g>
		<g>
			<path d="M490.672,28.937h-64c-23.558,0-42.667,19.109-42.667,42.667h-53.333c-40.094,0-78.325,19.108-102.398,51.198
				l-30.667,40.911c-16.415-4.262-34.496,1.542-45.145,16.033l-37.857,51.622c-6.967,9.5-4.914,22.849,4.585,29.817l103.211,75.712
				c9.501,6.97,22.853,4.917,29.821-4.585l37.845-51.605c7.931-10.794,10.018-24.086,6.853-36.111l33.731-44.969
				c-0.007,0.01,31.279-0.003,53.356-0.012c0.005,23.553,19.112,42.657,42.666,42.657h64c11.782,0,21.333-9.551,21.333-21.333V50.27
				C512.005,38.488,502.454,28.937,490.672,28.937z M230.432,289.874l-68.808-50.475l25.231-34.405
				c-0.006,0.009,58.648,43.026,67.646,49.625c0.353,0.455,0.377,0.484,0.827,1.051c0.031,0.039,0.065,0.075,0.097,0.113
				C252.952,259.161,230.432,289.874,230.432,289.874z M330.672,156.937c-13.386,0-26.073,6.355-34.13,17.055l-28.323,37.759
				l-34.394-25.221l28.583-38.131c16.01-21.341,41.596-34.129,68.264-34.129h53.333v42.667H330.672z M469.339,199.604h-42.667
				V178.27V92.937V71.604h42.667V199.604z"/>
			<path d="M109.339,377.583c-9.173-7.381-22.635-5.867-29.973,3.328l-13.312,16.661c-7.36,9.216-5.867,22.635,3.349,29.995
				c3.904,3.136,8.619,4.672,13.291,4.672c6.272,0,12.48-2.752,16.683-8.021l13.312-16.661
				C120.048,398.362,118.555,384.922,109.339,377.583z"/>
			<path d="M122.672,360.922c3.947,3.136,8.64,4.672,13.312,4.672c6.272,0,12.459-2.731,16.661-8l13.333-16.661
				c7.381-9.195,5.888-22.613-3.307-29.995c-9.237-7.36-22.635-5.824-29.973,3.328l-13.333,16.661
				C111.984,340.122,113.477,353.562,122.672,360.922z"/>
			<path d="M159.097,425.148c-10.112-6.08-23.211-2.773-29.269,7.317l-10.987,18.304c-6.059,10.091-2.795,23.189,7.317,29.269
				c3.435,2.048,7.232,3.029,10.944,3.029c7.253,0,14.315-3.691,18.325-10.347l10.965-18.304
				C172.473,444.327,169.187,431.228,159.097,425.148z"/>
			<path d="M202.979,351.975c-10.112-6.08-23.232-2.773-29.269,7.317l-10.965,18.283c-6.08,10.112-2.795,23.211,7.296,29.269
				c3.435,2.069,7.232,3.051,10.965,3.051c7.253,0,14.315-3.691,18.304-10.347l10.987-18.304
				C216.355,371.154,213.091,358.034,202.979,351.975z"/>
			<path d="M85.339,336.444l15.083-15.083c8.341-8.341,8.341-21.824,0-30.165c-8.341-8.341-21.824-8.341-30.165,0l-15.083,15.083
				c-8.341,8.341-8.341,21.824,0,30.165c4.16,4.16,9.621,6.251,15.083,6.251C75.717,342.695,81.179,340.604,85.339,336.444z"/>
			<path d="M9.947,351.527l-3.669,3.648c-8.363,8.32-8.363,21.824-0.043,30.165c4.16,4.181,9.621,6.272,15.104,6.272
				c5.461,0,10.901-2.069,15.061-6.229l3.669-3.648c8.363-8.32,8.363-21.824,0.043-30.165
				C31.792,343.228,18.288,343.186,9.947,351.527z"/>
		</g>
	</g>
</g>
</svg>